%
M48
M72
T01C0.02000
T02C0.04000
%
T01
X553533Y36800
T02
X423333Y15400
X433333Y15400
X443333Y15400
X453333Y15400
X463333Y15400
X473333Y15400
X483333Y15400
X493333Y15400
X503333Y15400
X513333Y15400
X523333Y15400
X533333Y15400
X543333Y15400
X553333Y15400
X563333Y15400
X573333Y15400
X423333Y40400
X448333Y45400
X423333Y50400
X448333Y55400
X423333Y60400
X448333Y65400
X468333Y70400
X478333Y70400
X488333Y70400
X503333Y65400
X523333Y65400
X543333Y65400
X563333Y65400
X583333Y65400
X593333Y65400
X593333Y75400
X583333Y75400
X563333Y75400
X543333Y75400
X523333Y75400
X423333Y70400
X478333Y55400
X503333Y55400
X523333Y55400
X543333Y55400
X563333Y55400
X583333Y55400
X593333Y55400
X593333Y45400
X583333Y45400
X563333Y45400
X543333Y45400
X523333Y45400
X503333Y45400
X503333Y95400
X493333Y95400
X483333Y95400
X473333Y95400
X463333Y95400
X513333Y95400
X523333Y95400
X533333Y95400
X543333Y95400
X553333Y95400
X563333Y95400
X573333Y95400
M30
