G75*
%MOIN*%
%OFA0B0*%
%FSLAX25Y25*%
%IPPOS*%
%LPD*%
%AMOC8*
5,1,8,0,0,1.08239X$1,22.5*
%
%ADD10C,0.07400*%
%ADD11R,0.07400X0.07400*%
%ADD12R,0.06400X0.06400*%
%ADD13OC8,0.06400*%
%ADD14C,0.01000*%
%ADD15C,0.00800*%
%ADD16C,0.04000*%
D10*
X0423333Y0015400D03*
X0433333Y0015400D03*
X0443333Y0015400D03*
X0453333Y0015400D03*
X0463333Y0015400D03*
X0473333Y0015400D03*
X0483333Y0015400D03*
X0493333Y0015400D03*
X0503333Y0015400D03*
X0513333Y0015400D03*
X0523333Y0015400D03*
X0533333Y0015400D03*
X0543333Y0015400D03*
X0553333Y0015400D03*
X0563333Y0015400D03*
X0573333Y0015400D03*
X0423333Y0040400D03*
X0448333Y0045400D03*
X0423333Y0050400D03*
X0448333Y0055400D03*
X0423333Y0060400D03*
X0448333Y0065400D03*
X0468333Y0070400D03*
X0478333Y0070400D03*
X0488333Y0070400D03*
X0503333Y0065400D03*
X0523333Y0065400D03*
X0543333Y0065400D03*
X0563333Y0065400D03*
X0563333Y0055400D03*
X0543333Y0055400D03*
X0523333Y0055400D03*
X0503333Y0055400D03*
X0478333Y0055400D03*
X0503333Y0045400D03*
X0523333Y0045400D03*
X0543333Y0045400D03*
X0563333Y0045400D03*
X0563333Y0095400D03*
X0553333Y0095400D03*
X0543333Y0095400D03*
X0533333Y0095400D03*
X0523333Y0095400D03*
X0513333Y0095400D03*
X0503333Y0095400D03*
X0493333Y0095400D03*
X0483333Y0095400D03*
X0473333Y0095400D03*
X0463333Y0095400D03*
X0573333Y0095400D03*
D11*
X0563333Y0075400D03*
X0543333Y0075400D03*
X0523333Y0075400D03*
X0423333Y0070400D03*
D12*
X0583333Y0075400D03*
D13*
X0593333Y0075400D03*
X0593333Y0065400D03*
X0583333Y0065400D03*
X0583333Y0055400D03*
X0593333Y0055400D03*
X0593333Y0045400D03*
X0583333Y0045400D03*
D14*
X0418333Y0037315D02*
X0418333Y0018485D01*
X0418416Y0018685D01*
X0420048Y0020317D01*
X0422180Y0021200D01*
X0424487Y0021200D01*
X0426619Y0020317D01*
X0428250Y0018685D01*
X0428333Y0018485D01*
X0428416Y0018685D01*
X0430048Y0020317D01*
X0432180Y0021200D01*
X0434487Y0021200D01*
X0436619Y0020317D01*
X0438250Y0018685D01*
X0438333Y0018485D01*
X0438416Y0018685D01*
X0440048Y0020317D01*
X0442180Y0021200D01*
X0444487Y0021200D01*
X0446619Y0020317D01*
X0448250Y0018685D01*
X0448663Y0017688D01*
X0448886Y0018125D01*
X0449367Y0018788D01*
X0449946Y0019366D01*
X0450608Y0019847D01*
X0451337Y0020219D01*
X0452116Y0020472D01*
X0452833Y0020586D01*
X0452833Y0015900D01*
X0453833Y0015900D01*
X0453833Y0020586D01*
X0454551Y0020472D01*
X0455329Y0020219D01*
X0456059Y0019847D01*
X0456721Y0019366D01*
X0457300Y0018788D01*
X0457781Y0018125D01*
X0458003Y0017688D01*
X0458416Y0018685D01*
X0460048Y0020317D01*
X0462180Y0021200D01*
X0464487Y0021200D01*
X0466619Y0020317D01*
X0468250Y0018685D01*
X0468333Y0018485D01*
X0468416Y0018685D01*
X0470048Y0020317D01*
X0472180Y0021200D01*
X0474487Y0021200D01*
X0476619Y0020317D01*
X0478250Y0018685D01*
X0478333Y0018485D01*
X0478416Y0018685D01*
X0480048Y0020317D01*
X0482180Y0021200D01*
X0484487Y0021200D01*
X0486619Y0020317D01*
X0488250Y0018685D01*
X0488333Y0018485D01*
X0488416Y0018685D01*
X0490048Y0020317D01*
X0492180Y0021200D01*
X0494487Y0021200D01*
X0496619Y0020317D01*
X0498250Y0018685D01*
X0498333Y0018485D01*
X0498416Y0018685D01*
X0500048Y0020317D01*
X0502180Y0021200D01*
X0504487Y0021200D01*
X0506619Y0020317D01*
X0508250Y0018685D01*
X0508333Y0018485D01*
X0508416Y0018685D01*
X0510048Y0020317D01*
X0512180Y0021200D01*
X0514487Y0021200D01*
X0516619Y0020317D01*
X0518250Y0018685D01*
X0518333Y0018485D01*
X0518416Y0018685D01*
X0520048Y0020317D01*
X0522180Y0021200D01*
X0524487Y0021200D01*
X0526619Y0020317D01*
X0528250Y0018685D01*
X0528333Y0018485D01*
X0528416Y0018685D01*
X0530048Y0020317D01*
X0532180Y0021200D01*
X0534487Y0021200D01*
X0536619Y0020317D01*
X0538250Y0018685D01*
X0538333Y0018485D01*
X0538416Y0018685D01*
X0540048Y0020317D01*
X0542180Y0021200D01*
X0544487Y0021200D01*
X0546619Y0020317D01*
X0548250Y0018685D01*
X0548333Y0018485D01*
X0548416Y0018685D01*
X0550048Y0020317D01*
X0552180Y0021200D01*
X0554487Y0021200D01*
X0556619Y0020317D01*
X0558250Y0018685D01*
X0558333Y0018485D01*
X0558416Y0018685D01*
X0560048Y0020317D01*
X0562180Y0021200D01*
X0564487Y0021200D01*
X0566619Y0020317D01*
X0568250Y0018685D01*
X0568333Y0018485D01*
X0568416Y0018685D01*
X0570048Y0020317D01*
X0572180Y0021200D01*
X0574487Y0021200D01*
X0576619Y0020317D01*
X0578250Y0018685D01*
X0579133Y0016554D01*
X0579133Y0014246D01*
X0578534Y0012800D01*
X0598333Y0012800D01*
X0598333Y0042905D01*
X0595529Y0040100D01*
X0591138Y0040100D01*
X0588333Y0042905D01*
X0585529Y0040100D01*
X0581138Y0040100D01*
X0578033Y0043205D01*
X0578033Y0043364D01*
X0570053Y0035384D01*
X0569349Y0034681D01*
X0568431Y0034300D01*
X0556832Y0034300D01*
X0555856Y0033324D01*
X0554349Y0032700D01*
X0552718Y0032700D01*
X0551211Y0033324D01*
X0550058Y0034478D01*
X0549433Y0035984D01*
X0549433Y0037616D01*
X0550058Y0039122D01*
X0550835Y0039900D01*
X0549836Y0039900D01*
X0548917Y0040281D01*
X0547667Y0041531D01*
X0546619Y0040483D01*
X0544487Y0039600D01*
X0542180Y0039600D01*
X0540048Y0040483D01*
X0538416Y0042115D01*
X0537533Y0044246D01*
X0537533Y0046554D01*
X0538416Y0048685D01*
X0540048Y0050317D01*
X0541045Y0050730D01*
X0540608Y0050953D01*
X0539946Y0051434D01*
X0539367Y0052012D01*
X0538886Y0052675D01*
X0538514Y0053404D01*
X0538261Y0054182D01*
X0538148Y0054900D01*
X0542833Y0054900D01*
X0542833Y0055900D01*
X0538148Y0055900D01*
X0538261Y0056618D01*
X0538514Y0057396D01*
X0538886Y0058125D01*
X0539367Y0058788D01*
X0539946Y0059366D01*
X0540608Y0059847D01*
X0541045Y0060070D01*
X0540048Y0060483D01*
X0538416Y0062115D01*
X0537533Y0064246D01*
X0537533Y0066554D01*
X0538416Y0068685D01*
X0539331Y0069600D01*
X0538763Y0069600D01*
X0537533Y0070830D01*
X0537533Y0079970D01*
X0538763Y0081200D01*
X0547903Y0081200D01*
X0549133Y0079970D01*
X0549133Y0070830D01*
X0547903Y0069600D01*
X0547336Y0069600D01*
X0548250Y0068685D01*
X0549133Y0066554D01*
X0549133Y0064246D01*
X0548250Y0062115D01*
X0546619Y0060483D01*
X0545622Y0060070D01*
X0546059Y0059847D01*
X0546721Y0059366D01*
X0547300Y0058788D01*
X0547781Y0058125D01*
X0548152Y0057396D01*
X0548405Y0056618D01*
X0548519Y0055900D01*
X0543833Y0055900D01*
X0543833Y0054900D01*
X0548519Y0054900D01*
X0548405Y0054182D01*
X0548152Y0053404D01*
X0547781Y0052675D01*
X0547300Y0052012D01*
X0546721Y0051434D01*
X0546059Y0050953D01*
X0545622Y0050730D01*
X0546619Y0050317D01*
X0548250Y0048685D01*
X0548906Y0047103D01*
X0549349Y0046919D01*
X0550053Y0046216D01*
X0551369Y0044900D01*
X0554098Y0044900D01*
X0556917Y0047719D01*
X0557836Y0048100D01*
X0558174Y0048100D01*
X0558416Y0048685D01*
X0560048Y0050317D01*
X0561045Y0050730D01*
X0560608Y0050953D01*
X0559946Y0051434D01*
X0559367Y0052012D01*
X0558886Y0052675D01*
X0558514Y0053404D01*
X0558261Y0054182D01*
X0558148Y0054900D01*
X0562833Y0054900D01*
X0562833Y0055900D01*
X0558148Y0055900D01*
X0558261Y0056618D01*
X0558514Y0057396D01*
X0558886Y0058125D01*
X0559367Y0058788D01*
X0559946Y0059366D01*
X0560608Y0059847D01*
X0561045Y0060070D01*
X0560048Y0060483D01*
X0558416Y0062115D01*
X0557533Y0064246D01*
X0557533Y0066554D01*
X0558416Y0068685D01*
X0559331Y0069600D01*
X0558763Y0069600D01*
X0557533Y0070830D01*
X0557533Y0079970D01*
X0558763Y0081200D01*
X0562233Y0081200D01*
X0562233Y0084497D01*
X0562614Y0085416D01*
X0563317Y0086119D01*
X0568864Y0091667D01*
X0568416Y0092115D01*
X0568333Y0092315D01*
X0568250Y0092115D01*
X0566619Y0090483D01*
X0564487Y0089600D01*
X0562180Y0089600D01*
X0560048Y0090483D01*
X0558416Y0092115D01*
X0558333Y0092315D01*
X0558250Y0092115D01*
X0556619Y0090483D01*
X0554487Y0089600D01*
X0552180Y0089600D01*
X0550048Y0090483D01*
X0548416Y0092115D01*
X0548333Y0092315D01*
X0548250Y0092115D01*
X0546619Y0090483D01*
X0544487Y0089600D01*
X0542180Y0089600D01*
X0540048Y0090483D01*
X0538416Y0092115D01*
X0538333Y0092315D01*
X0538250Y0092115D01*
X0536619Y0090483D01*
X0534487Y0089600D01*
X0532180Y0089600D01*
X0530048Y0090483D01*
X0528416Y0092115D01*
X0528333Y0092315D01*
X0528250Y0092115D01*
X0526619Y0090483D01*
X0524487Y0089600D01*
X0522180Y0089600D01*
X0520048Y0090483D01*
X0518416Y0092115D01*
X0518333Y0092315D01*
X0518250Y0092115D01*
X0516619Y0090483D01*
X0514487Y0089600D01*
X0513069Y0089600D01*
X0512549Y0089081D01*
X0499233Y0075764D01*
X0499233Y0069903D01*
X0498950Y0069219D01*
X0500048Y0070317D01*
X0502180Y0071200D01*
X0504487Y0071200D01*
X0506619Y0070317D01*
X0508250Y0068685D01*
X0509133Y0066554D01*
X0509133Y0064246D01*
X0508250Y0062115D01*
X0506619Y0060483D01*
X0505622Y0060070D01*
X0506059Y0059847D01*
X0506721Y0059366D01*
X0507300Y0058788D01*
X0507781Y0058125D01*
X0508152Y0057396D01*
X0508405Y0056618D01*
X0508519Y0055900D01*
X0503833Y0055900D01*
X0503833Y0054900D01*
X0508519Y0054900D01*
X0508405Y0054182D01*
X0508152Y0053404D01*
X0507781Y0052675D01*
X0507300Y0052012D01*
X0506721Y0051434D01*
X0506059Y0050953D01*
X0505622Y0050730D01*
X0506619Y0050317D01*
X0508250Y0048685D01*
X0509133Y0046554D01*
X0509133Y0044246D01*
X0508250Y0042115D01*
X0506619Y0040483D01*
X0504487Y0039600D01*
X0502180Y0039600D01*
X0500048Y0040483D01*
X0498416Y0042115D01*
X0497533Y0044246D01*
X0497533Y0046554D01*
X0498416Y0048685D01*
X0500048Y0050317D01*
X0501045Y0050730D01*
X0500608Y0050953D01*
X0499946Y0051434D01*
X0499367Y0052012D01*
X0498886Y0052675D01*
X0498514Y0053404D01*
X0498261Y0054182D01*
X0498148Y0054900D01*
X0502833Y0054900D01*
X0502833Y0055900D01*
X0498148Y0055900D01*
X0498261Y0056618D01*
X0498514Y0057396D01*
X0498886Y0058125D01*
X0499367Y0058788D01*
X0499946Y0059366D01*
X0500608Y0059847D01*
X0501045Y0060070D01*
X0500048Y0060483D01*
X0498416Y0062115D01*
X0497533Y0064246D01*
X0497533Y0066554D01*
X0498319Y0068450D01*
X0498149Y0068281D01*
X0496833Y0066964D01*
X0496833Y0063503D01*
X0496453Y0062584D01*
X0495749Y0061881D01*
X0493349Y0059481D01*
X0492431Y0059100D01*
X0488169Y0059100D01*
X0484133Y0055064D01*
X0484133Y0054246D01*
X0483250Y0052115D01*
X0481619Y0050483D01*
X0479487Y0049600D01*
X0477180Y0049600D01*
X0475048Y0050483D01*
X0473416Y0052115D01*
X0472533Y0054246D01*
X0472533Y0056554D01*
X0473416Y0058685D01*
X0475048Y0060317D01*
X0477180Y0061200D01*
X0479487Y0061200D01*
X0481619Y0060317D01*
X0481967Y0059969D01*
X0485014Y0063016D01*
X0485014Y0063016D01*
X0485717Y0063719D01*
X0486636Y0064100D01*
X0490898Y0064100D01*
X0491833Y0065036D01*
X0491833Y0065698D01*
X0491619Y0065483D01*
X0489487Y0064600D01*
X0487180Y0064600D01*
X0485048Y0065483D01*
X0483416Y0067115D01*
X0483003Y0068112D01*
X0482781Y0067675D01*
X0482300Y0067012D01*
X0481721Y0066434D01*
X0481059Y0065953D01*
X0480329Y0065581D01*
X0479551Y0065328D01*
X0478833Y0065214D01*
X0478833Y0069900D01*
X0477833Y0069900D01*
X0477833Y0065214D01*
X0477116Y0065328D01*
X0476337Y0065581D01*
X0475608Y0065953D01*
X0474946Y0066434D01*
X0474367Y0067012D01*
X0473886Y0067675D01*
X0473663Y0068112D01*
X0473250Y0067115D01*
X0471619Y0065483D01*
X0469487Y0064600D01*
X0467180Y0064600D01*
X0465048Y0065483D01*
X0463416Y0067115D01*
X0462533Y0069246D01*
X0462533Y0071554D01*
X0463416Y0073685D01*
X0465048Y0075317D01*
X0467180Y0076200D01*
X0469487Y0076200D01*
X0471619Y0075317D01*
X0473250Y0073685D01*
X0473663Y0072688D01*
X0473886Y0073125D01*
X0474367Y0073788D01*
X0474946Y0074366D01*
X0475608Y0074847D01*
X0476337Y0075219D01*
X0477116Y0075472D01*
X0477833Y0075586D01*
X0477833Y0070900D01*
X0478833Y0070900D01*
X0478833Y0075586D01*
X0479551Y0075472D01*
X0480329Y0075219D01*
X0481059Y0074847D01*
X0481721Y0074366D01*
X0482300Y0073788D01*
X0482781Y0073125D01*
X0483003Y0072688D01*
X0483416Y0073685D01*
X0485048Y0075317D01*
X0487180Y0076200D01*
X0489487Y0076200D01*
X0491619Y0075317D01*
X0493250Y0073685D01*
X0494133Y0071554D01*
X0494133Y0071336D01*
X0494233Y0071436D01*
X0494233Y0077297D01*
X0494614Y0078216D01*
X0508464Y0092067D01*
X0508416Y0092115D01*
X0508333Y0092315D01*
X0508250Y0092115D01*
X0506619Y0090483D01*
X0504487Y0089600D01*
X0502180Y0089600D01*
X0500048Y0090483D01*
X0498416Y0092115D01*
X0498333Y0092315D01*
X0498250Y0092115D01*
X0496619Y0090483D01*
X0494487Y0089600D01*
X0492180Y0089600D01*
X0490048Y0090483D01*
X0488416Y0092115D01*
X0488333Y0092315D01*
X0488250Y0092115D01*
X0486619Y0090483D01*
X0484487Y0089600D01*
X0482180Y0089600D01*
X0480048Y0090483D01*
X0478416Y0092115D01*
X0478333Y0092315D01*
X0478250Y0092115D01*
X0476619Y0090483D01*
X0474487Y0089600D01*
X0472180Y0089600D01*
X0470048Y0090483D01*
X0468416Y0092115D01*
X0468333Y0092315D01*
X0468250Y0092115D01*
X0466619Y0090483D01*
X0464487Y0089600D01*
X0462180Y0089600D01*
X0460048Y0090483D01*
X0458416Y0092115D01*
X0457533Y0094246D01*
X0457533Y0096554D01*
X0458132Y0098000D01*
X0418333Y0098000D01*
X0418333Y0074848D01*
X0418433Y0075021D01*
X0418712Y0075300D01*
X0419054Y0075498D01*
X0419436Y0075600D01*
X0422833Y0075600D01*
X0422833Y0070900D01*
X0423833Y0070900D01*
X0423833Y0075600D01*
X0427231Y0075600D01*
X0427612Y0075498D01*
X0427954Y0075300D01*
X0428234Y0075021D01*
X0428431Y0074679D01*
X0428533Y0074297D01*
X0428533Y0070900D01*
X0423833Y0070900D01*
X0423833Y0069900D01*
X0428533Y0069900D01*
X0428533Y0066503D01*
X0428431Y0066121D01*
X0428234Y0065779D01*
X0427954Y0065500D01*
X0427612Y0065302D01*
X0427231Y0065200D01*
X0426736Y0065200D01*
X0428250Y0063685D01*
X0429133Y0061554D01*
X0429133Y0059246D01*
X0428250Y0057115D01*
X0426619Y0055483D01*
X0426418Y0055400D01*
X0426619Y0055317D01*
X0428250Y0053685D01*
X0429133Y0051554D01*
X0429133Y0049246D01*
X0428250Y0047115D01*
X0426619Y0045483D01*
X0426418Y0045400D01*
X0426619Y0045317D01*
X0428250Y0043685D01*
X0429133Y0041554D01*
X0429133Y0039246D01*
X0428250Y0037115D01*
X0426619Y0035483D01*
X0424487Y0034600D01*
X0422180Y0034600D01*
X0420048Y0035483D01*
X0418416Y0037115D01*
X0418333Y0037315D01*
X0418333Y0036361D02*
X0419170Y0036361D01*
X0418333Y0035363D02*
X0420338Y0035363D01*
X0418333Y0034364D02*
X0550171Y0034364D01*
X0549691Y0035363D02*
X0426329Y0035363D01*
X0427497Y0036361D02*
X0549433Y0036361D01*
X0549433Y0037360D02*
X0428352Y0037360D01*
X0428766Y0038358D02*
X0549741Y0038358D01*
X0550292Y0039357D02*
X0429133Y0039357D01*
X0429133Y0040355D02*
X0445356Y0040355D01*
X0445048Y0040483D02*
X0447180Y0039600D01*
X0449487Y0039600D01*
X0451619Y0040483D01*
X0453250Y0042115D01*
X0454133Y0044246D01*
X0454133Y0046554D01*
X0453250Y0048685D01*
X0451619Y0050317D01*
X0450622Y0050730D01*
X0451059Y0050953D01*
X0451721Y0051434D01*
X0452300Y0052012D01*
X0452781Y0052675D01*
X0453152Y0053404D01*
X0453405Y0054182D01*
X0453519Y0054900D01*
X0448833Y0054900D01*
X0448833Y0055900D01*
X0453519Y0055900D01*
X0453405Y0056618D01*
X0453152Y0057396D01*
X0452781Y0058125D01*
X0452300Y0058788D01*
X0451721Y0059366D01*
X0451059Y0059847D01*
X0450622Y0060070D01*
X0451619Y0060483D01*
X0453250Y0062115D01*
X0454133Y0064246D01*
X0454133Y0066554D01*
X0453250Y0068685D01*
X0451619Y0070317D01*
X0449487Y0071200D01*
X0447180Y0071200D01*
X0445048Y0070317D01*
X0443416Y0068685D01*
X0442533Y0066554D01*
X0442533Y0064246D01*
X0443416Y0062115D01*
X0445048Y0060483D01*
X0446045Y0060070D01*
X0445608Y0059847D01*
X0444946Y0059366D01*
X0444367Y0058788D01*
X0443886Y0058125D01*
X0443514Y0057396D01*
X0443261Y0056618D01*
X0443148Y0055900D01*
X0447833Y0055900D01*
X0447833Y0054900D01*
X0443148Y0054900D01*
X0443261Y0054182D01*
X0443514Y0053404D01*
X0443886Y0052675D01*
X0444367Y0052012D01*
X0444946Y0051434D01*
X0445608Y0050953D01*
X0446045Y0050730D01*
X0445048Y0050317D01*
X0443416Y0048685D01*
X0442533Y0046554D01*
X0442533Y0044246D01*
X0443416Y0042115D01*
X0445048Y0040483D01*
X0444177Y0041354D02*
X0429133Y0041354D01*
X0428802Y0042352D02*
X0443318Y0042352D01*
X0442904Y0043351D02*
X0428389Y0043351D01*
X0427586Y0044349D02*
X0442533Y0044349D01*
X0442533Y0045348D02*
X0426544Y0045348D01*
X0427482Y0046346D02*
X0442533Y0046346D01*
X0442861Y0047345D02*
X0428346Y0047345D01*
X0428759Y0048343D02*
X0443275Y0048343D01*
X0444073Y0049342D02*
X0429133Y0049342D01*
X0429133Y0050340D02*
X0445105Y0050340D01*
X0445076Y0051339D02*
X0429133Y0051339D01*
X0428809Y0052337D02*
X0444131Y0052337D01*
X0443549Y0053336D02*
X0428395Y0053336D01*
X0427601Y0054334D02*
X0443237Y0054334D01*
X0447833Y0055333D02*
X0426580Y0055333D01*
X0427467Y0056332D02*
X0443216Y0056332D01*
X0443493Y0057330D02*
X0428340Y0057330D01*
X0428753Y0058329D02*
X0444033Y0058329D01*
X0444906Y0059327D02*
X0429133Y0059327D01*
X0429133Y0060326D02*
X0445428Y0060326D01*
X0444207Y0061324D02*
X0429133Y0061324D01*
X0428815Y0062323D02*
X0443330Y0062323D01*
X0442917Y0063321D02*
X0428401Y0063321D01*
X0427616Y0064320D02*
X0442533Y0064320D01*
X0442533Y0065318D02*
X0427640Y0065318D01*
X0428484Y0066317D02*
X0442533Y0066317D01*
X0442849Y0067315D02*
X0428533Y0067315D01*
X0428533Y0068314D02*
X0443262Y0068314D01*
X0444043Y0069312D02*
X0428533Y0069312D01*
X0428533Y0071309D02*
X0462533Y0071309D01*
X0462533Y0070311D02*
X0451625Y0070311D01*
X0452624Y0069312D02*
X0462533Y0069312D01*
X0462920Y0068314D02*
X0453404Y0068314D01*
X0453818Y0067315D02*
X0463333Y0067315D01*
X0464214Y0066317D02*
X0454133Y0066317D01*
X0454133Y0065318D02*
X0465446Y0065318D01*
X0471221Y0065318D02*
X0477178Y0065318D01*
X0477833Y0065318D02*
X0478833Y0065318D01*
X0479488Y0065318D02*
X0485446Y0065318D01*
X0484214Y0066317D02*
X0481560Y0066317D01*
X0482520Y0067315D02*
X0483333Y0067315D01*
X0478833Y0067315D02*
X0477833Y0067315D01*
X0477833Y0066317D02*
X0478833Y0066317D01*
X0475107Y0066317D02*
X0472452Y0066317D01*
X0473333Y0067315D02*
X0474147Y0067315D01*
X0477833Y0068314D02*
X0478833Y0068314D01*
X0478833Y0069312D02*
X0477833Y0069312D01*
X0477833Y0071309D02*
X0478833Y0071309D01*
X0478833Y0072308D02*
X0477833Y0072308D01*
X0477833Y0073306D02*
X0478833Y0073306D01*
X0478833Y0074305D02*
X0477833Y0074305D01*
X0477833Y0075303D02*
X0478833Y0075303D01*
X0480070Y0075303D02*
X0485034Y0075303D01*
X0484036Y0074305D02*
X0481782Y0074305D01*
X0482649Y0073306D02*
X0483259Y0073306D01*
X0492631Y0074305D02*
X0494233Y0074305D01*
X0494233Y0075303D02*
X0491633Y0075303D01*
X0494233Y0076302D02*
X0418333Y0076302D01*
X0418333Y0077300D02*
X0494235Y0077300D01*
X0494697Y0078299D02*
X0418333Y0078299D01*
X0418333Y0079297D02*
X0495695Y0079297D01*
X0496694Y0080296D02*
X0418333Y0080296D01*
X0418333Y0081294D02*
X0497692Y0081294D01*
X0498691Y0082293D02*
X0418333Y0082293D01*
X0418333Y0083291D02*
X0499689Y0083291D01*
X0500688Y0084290D02*
X0418333Y0084290D01*
X0418333Y0085288D02*
X0501686Y0085288D01*
X0502685Y0086287D02*
X0418333Y0086287D01*
X0418333Y0087285D02*
X0503683Y0087285D01*
X0504682Y0088284D02*
X0418333Y0088284D01*
X0418333Y0089282D02*
X0505680Y0089282D01*
X0506131Y0090281D02*
X0506679Y0090281D01*
X0507415Y0091279D02*
X0507677Y0091279D01*
X0508318Y0092278D02*
X0508349Y0092278D01*
X0517415Y0091279D02*
X0519251Y0091279D01*
X0518349Y0092278D02*
X0518318Y0092278D01*
X0527415Y0091279D02*
X0529251Y0091279D01*
X0528349Y0092278D02*
X0528318Y0092278D01*
X0526131Y0090281D02*
X0530536Y0090281D01*
X0536131Y0090281D02*
X0540536Y0090281D01*
X0539251Y0091279D02*
X0537415Y0091279D01*
X0538318Y0092278D02*
X0538349Y0092278D01*
X0547415Y0091279D02*
X0549251Y0091279D01*
X0548349Y0092278D02*
X0548318Y0092278D01*
X0546131Y0090281D02*
X0550536Y0090281D01*
X0556131Y0090281D02*
X0560536Y0090281D01*
X0559251Y0091279D02*
X0557415Y0091279D01*
X0558318Y0092278D02*
X0558349Y0092278D01*
X0566131Y0090281D02*
X0567479Y0090281D01*
X0567415Y0091279D02*
X0568477Y0091279D01*
X0568349Y0092278D02*
X0568318Y0092278D01*
X0576619Y0090483D02*
X0578250Y0092115D01*
X0579133Y0094246D01*
X0579133Y0096554D01*
X0578534Y0098000D01*
X0598333Y0098000D01*
X0598333Y0077895D01*
X0595529Y0080700D01*
X0591138Y0080700D01*
X0588033Y0077595D01*
X0588033Y0073205D01*
X0590838Y0070400D01*
X0588333Y0067895D01*
X0585529Y0070700D01*
X0581138Y0070700D01*
X0578033Y0067595D01*
X0578033Y0063205D01*
X0580838Y0060400D01*
X0578033Y0057595D01*
X0578033Y0053205D01*
X0579418Y0051820D01*
X0566898Y0039300D01*
X0556832Y0039300D01*
X0556056Y0040076D01*
X0556549Y0040281D01*
X0557253Y0040984D01*
X0558407Y0042138D01*
X0558416Y0042115D01*
X0560048Y0040483D01*
X0562180Y0039600D01*
X0564487Y0039600D01*
X0566619Y0040483D01*
X0568250Y0042115D01*
X0569133Y0044246D01*
X0569133Y0046554D01*
X0568250Y0048685D01*
X0566619Y0050317D01*
X0565622Y0050730D01*
X0566059Y0050953D01*
X0566721Y0051434D01*
X0567300Y0052012D01*
X0567781Y0052675D01*
X0568152Y0053404D01*
X0568405Y0054182D01*
X0568519Y0054900D01*
X0563833Y0054900D01*
X0563833Y0055900D01*
X0568519Y0055900D01*
X0568405Y0056618D01*
X0568152Y0057396D01*
X0567781Y0058125D01*
X0567300Y0058788D01*
X0566721Y0059366D01*
X0566059Y0059847D01*
X0565622Y0060070D01*
X0566619Y0060483D01*
X0568250Y0062115D01*
X0569133Y0064246D01*
X0569133Y0066554D01*
X0568250Y0068685D01*
X0567336Y0069600D01*
X0567903Y0069600D01*
X0569133Y0070830D01*
X0569133Y0079970D01*
X0567903Y0081200D01*
X0567233Y0081200D01*
X0567233Y0082964D01*
X0573869Y0089600D01*
X0574487Y0089600D01*
X0576619Y0090483D01*
X0576131Y0090281D02*
X0598333Y0090281D01*
X0598333Y0091279D02*
X0577415Y0091279D01*
X0578318Y0092278D02*
X0598333Y0092278D01*
X0598333Y0093276D02*
X0578732Y0093276D01*
X0579133Y0094275D02*
X0598333Y0094275D01*
X0598333Y0095273D02*
X0579133Y0095273D01*
X0579133Y0096272D02*
X0598333Y0096272D01*
X0598333Y0097270D02*
X0578836Y0097270D01*
X0573551Y0089282D02*
X0598333Y0089282D01*
X0598333Y0088284D02*
X0572553Y0088284D01*
X0571554Y0087285D02*
X0598333Y0087285D01*
X0598333Y0086287D02*
X0570556Y0086287D01*
X0569557Y0085288D02*
X0598333Y0085288D01*
X0598333Y0084290D02*
X0568559Y0084290D01*
X0567560Y0083291D02*
X0598333Y0083291D01*
X0598333Y0082293D02*
X0567233Y0082293D01*
X0567233Y0081294D02*
X0598333Y0081294D01*
X0598333Y0080296D02*
X0595933Y0080296D01*
X0596931Y0079297D02*
X0598333Y0079297D01*
X0598333Y0078299D02*
X0597930Y0078299D01*
X0590734Y0080296D02*
X0568807Y0080296D01*
X0569133Y0079297D02*
X0578804Y0079297D01*
X0578736Y0079179D02*
X0578633Y0078797D01*
X0578633Y0075900D01*
X0582833Y0075900D01*
X0582833Y0074900D01*
X0578633Y0074900D01*
X0578633Y0072003D01*
X0578736Y0071621D01*
X0578933Y0071279D01*
X0579212Y0071000D01*
X0579554Y0070802D01*
X0579936Y0070700D01*
X0582833Y0070700D01*
X0582833Y0074900D01*
X0583833Y0074900D01*
X0583833Y0070700D01*
X0586731Y0070700D01*
X0587112Y0070802D01*
X0587454Y0071000D01*
X0587734Y0071279D01*
X0587931Y0071621D01*
X0588033Y0072003D01*
X0588033Y0074900D01*
X0583833Y0074900D01*
X0583833Y0075900D01*
X0582833Y0075900D01*
X0582833Y0080100D01*
X0579936Y0080100D01*
X0579554Y0079998D01*
X0579212Y0079800D01*
X0578933Y0079521D01*
X0578736Y0079179D01*
X0578633Y0078299D02*
X0569133Y0078299D01*
X0569133Y0077300D02*
X0578633Y0077300D01*
X0578633Y0076302D02*
X0569133Y0076302D01*
X0569133Y0075303D02*
X0582833Y0075303D01*
X0582833Y0074305D02*
X0583833Y0074305D01*
X0583833Y0075303D02*
X0588033Y0075303D01*
X0588033Y0075900D02*
X0583833Y0075900D01*
X0583833Y0080100D01*
X0586731Y0080100D01*
X0587112Y0079998D01*
X0587454Y0079800D01*
X0587734Y0079521D01*
X0587931Y0079179D01*
X0588033Y0078797D01*
X0588033Y0075900D01*
X0588033Y0076302D02*
X0588033Y0076302D01*
X0588033Y0077300D02*
X0588033Y0077300D01*
X0588033Y0078299D02*
X0588737Y0078299D01*
X0587863Y0079297D02*
X0589735Y0079297D01*
X0583833Y0079297D02*
X0582833Y0079297D01*
X0582833Y0078299D02*
X0583833Y0078299D01*
X0583833Y0077300D02*
X0582833Y0077300D01*
X0582833Y0076302D02*
X0583833Y0076302D01*
X0588033Y0074305D02*
X0588033Y0074305D01*
X0588033Y0073306D02*
X0588033Y0073306D01*
X0588033Y0072308D02*
X0588930Y0072308D01*
X0589929Y0071309D02*
X0587751Y0071309D01*
X0585918Y0070311D02*
X0590749Y0070311D01*
X0589750Y0069312D02*
X0586916Y0069312D01*
X0587915Y0068314D02*
X0588752Y0068314D01*
X0580749Y0070311D02*
X0568614Y0070311D01*
X0569133Y0071309D02*
X0578916Y0071309D01*
X0578633Y0072308D02*
X0569133Y0072308D01*
X0569133Y0073306D02*
X0578633Y0073306D01*
X0578633Y0074305D02*
X0569133Y0074305D01*
X0557533Y0074305D02*
X0549133Y0074305D01*
X0549133Y0075303D02*
X0557533Y0075303D01*
X0557533Y0076302D02*
X0549133Y0076302D01*
X0549133Y0077300D02*
X0557533Y0077300D01*
X0557533Y0078299D02*
X0549133Y0078299D01*
X0549133Y0079297D02*
X0557533Y0079297D01*
X0557859Y0080296D02*
X0548807Y0080296D01*
X0537859Y0080296D02*
X0528807Y0080296D01*
X0529133Y0079970D02*
X0527903Y0081200D01*
X0518763Y0081200D01*
X0517533Y0079970D01*
X0517533Y0070830D01*
X0518763Y0069600D01*
X0519331Y0069600D01*
X0518416Y0068685D01*
X0517533Y0066554D01*
X0517533Y0064246D01*
X0518416Y0062115D01*
X0520048Y0060483D01*
X0521045Y0060070D01*
X0520608Y0059847D01*
X0519946Y0059366D01*
X0519367Y0058788D01*
X0518886Y0058125D01*
X0518514Y0057396D01*
X0518261Y0056618D01*
X0518148Y0055900D01*
X0522833Y0055900D01*
X0522833Y0054900D01*
X0518148Y0054900D01*
X0518261Y0054182D01*
X0518514Y0053404D01*
X0518886Y0052675D01*
X0519367Y0052012D01*
X0519946Y0051434D01*
X0520608Y0050953D01*
X0521045Y0050730D01*
X0520048Y0050317D01*
X0518416Y0048685D01*
X0517533Y0046554D01*
X0517533Y0044246D01*
X0518416Y0042115D01*
X0520048Y0040483D01*
X0522180Y0039600D01*
X0524487Y0039600D01*
X0526619Y0040483D01*
X0528250Y0042115D01*
X0529133Y0044246D01*
X0529133Y0046554D01*
X0528250Y0048685D01*
X0526619Y0050317D01*
X0525622Y0050730D01*
X0526059Y0050953D01*
X0526721Y0051434D01*
X0527300Y0052012D01*
X0527781Y0052675D01*
X0528152Y0053404D01*
X0528405Y0054182D01*
X0528519Y0054900D01*
X0523833Y0054900D01*
X0523833Y0055900D01*
X0528519Y0055900D01*
X0528405Y0056618D01*
X0528152Y0057396D01*
X0527781Y0058125D01*
X0527300Y0058788D01*
X0526721Y0059366D01*
X0526059Y0059847D01*
X0525622Y0060070D01*
X0526619Y0060483D01*
X0528250Y0062115D01*
X0529133Y0064246D01*
X0529133Y0066554D01*
X0528250Y0068685D01*
X0527336Y0069600D01*
X0527903Y0069600D01*
X0529133Y0070830D01*
X0529133Y0079970D01*
X0529133Y0079297D02*
X0537533Y0079297D01*
X0537533Y0078299D02*
X0529133Y0078299D01*
X0529133Y0077300D02*
X0537533Y0077300D01*
X0537533Y0076302D02*
X0529133Y0076302D01*
X0529133Y0075303D02*
X0537533Y0075303D01*
X0537533Y0074305D02*
X0529133Y0074305D01*
X0529133Y0073306D02*
X0537533Y0073306D01*
X0537533Y0072308D02*
X0529133Y0072308D01*
X0529133Y0071309D02*
X0537533Y0071309D01*
X0538053Y0070311D02*
X0528614Y0070311D01*
X0527624Y0069312D02*
X0539043Y0069312D01*
X0538262Y0068314D02*
X0528404Y0068314D01*
X0528818Y0067315D02*
X0537849Y0067315D01*
X0537533Y0066317D02*
X0529133Y0066317D01*
X0529133Y0065318D02*
X0537533Y0065318D01*
X0537533Y0064320D02*
X0529133Y0064320D01*
X0528750Y0063321D02*
X0537917Y0063321D01*
X0538330Y0062323D02*
X0528336Y0062323D01*
X0527460Y0061324D02*
X0539207Y0061324D01*
X0540428Y0060326D02*
X0526239Y0060326D01*
X0526760Y0059327D02*
X0539906Y0059327D01*
X0539033Y0058329D02*
X0527633Y0058329D01*
X0528174Y0057330D02*
X0538493Y0057330D01*
X0538216Y0056332D02*
X0528451Y0056332D01*
X0523833Y0055333D02*
X0542833Y0055333D01*
X0543833Y0055333D02*
X0562833Y0055333D01*
X0563833Y0055333D02*
X0578033Y0055333D01*
X0578033Y0054334D02*
X0568429Y0054334D01*
X0568118Y0053336D02*
X0578033Y0053336D01*
X0578901Y0052337D02*
X0567536Y0052337D01*
X0566591Y0051339D02*
X0578937Y0051339D01*
X0577938Y0050340D02*
X0566562Y0050340D01*
X0567594Y0049342D02*
X0576940Y0049342D01*
X0575941Y0048343D02*
X0568392Y0048343D01*
X0568806Y0047345D02*
X0574943Y0047345D01*
X0573944Y0046346D02*
X0569133Y0046346D01*
X0569133Y0045348D02*
X0572946Y0045348D01*
X0571947Y0044349D02*
X0569133Y0044349D01*
X0568762Y0043351D02*
X0570949Y0043351D01*
X0569950Y0042352D02*
X0568349Y0042352D01*
X0568952Y0041354D02*
X0567490Y0041354D01*
X0567953Y0040355D02*
X0566311Y0040355D01*
X0566955Y0039357D02*
X0556775Y0039357D01*
X0556624Y0040355D02*
X0560356Y0040355D01*
X0559177Y0041354D02*
X0557623Y0041354D01*
X0548842Y0040355D02*
X0546311Y0040355D01*
X0547490Y0041354D02*
X0547844Y0041354D01*
X0540356Y0040355D02*
X0526311Y0040355D01*
X0527490Y0041354D02*
X0539177Y0041354D01*
X0538318Y0042352D02*
X0528349Y0042352D01*
X0528762Y0043351D02*
X0537904Y0043351D01*
X0537533Y0044349D02*
X0529133Y0044349D01*
X0529133Y0045348D02*
X0537533Y0045348D01*
X0537533Y0046346D02*
X0529133Y0046346D01*
X0528806Y0047345D02*
X0537861Y0047345D01*
X0538275Y0048343D02*
X0528392Y0048343D01*
X0527594Y0049342D02*
X0539073Y0049342D01*
X0540105Y0050340D02*
X0526562Y0050340D01*
X0526591Y0051339D02*
X0540076Y0051339D01*
X0539131Y0052337D02*
X0527536Y0052337D01*
X0528118Y0053336D02*
X0538549Y0053336D01*
X0538237Y0054334D02*
X0528429Y0054334D01*
X0522833Y0055333D02*
X0503833Y0055333D01*
X0502833Y0055333D02*
X0484402Y0055333D01*
X0484133Y0054334D02*
X0498237Y0054334D01*
X0498549Y0053336D02*
X0483756Y0053336D01*
X0483343Y0052337D02*
X0499131Y0052337D01*
X0500076Y0051339D02*
X0482475Y0051339D01*
X0481275Y0050340D02*
X0500105Y0050340D01*
X0499073Y0049342D02*
X0452594Y0049342D01*
X0453392Y0048343D02*
X0498275Y0048343D01*
X0497861Y0047345D02*
X0453806Y0047345D01*
X0454133Y0046346D02*
X0497533Y0046346D01*
X0497533Y0045348D02*
X0454133Y0045348D01*
X0454133Y0044349D02*
X0497533Y0044349D01*
X0497904Y0043351D02*
X0453762Y0043351D01*
X0453349Y0042352D02*
X0498318Y0042352D01*
X0499177Y0041354D02*
X0452490Y0041354D01*
X0451311Y0040355D02*
X0500356Y0040355D01*
X0506311Y0040355D02*
X0520356Y0040355D01*
X0519177Y0041354D02*
X0507490Y0041354D01*
X0508349Y0042352D02*
X0518318Y0042352D01*
X0517904Y0043351D02*
X0508762Y0043351D01*
X0509133Y0044349D02*
X0517533Y0044349D01*
X0517533Y0045348D02*
X0509133Y0045348D01*
X0509133Y0046346D02*
X0517533Y0046346D01*
X0517861Y0047345D02*
X0508806Y0047345D01*
X0508392Y0048343D02*
X0518275Y0048343D01*
X0519073Y0049342D02*
X0507594Y0049342D01*
X0506562Y0050340D02*
X0520105Y0050340D01*
X0520076Y0051339D02*
X0506591Y0051339D01*
X0507536Y0052337D02*
X0519131Y0052337D01*
X0518549Y0053336D02*
X0508118Y0053336D01*
X0508429Y0054334D02*
X0518237Y0054334D01*
X0518216Y0056332D02*
X0508451Y0056332D01*
X0508174Y0057330D02*
X0518493Y0057330D01*
X0519033Y0058329D02*
X0507633Y0058329D01*
X0506760Y0059327D02*
X0519906Y0059327D01*
X0520428Y0060326D02*
X0506239Y0060326D01*
X0507460Y0061324D02*
X0519207Y0061324D01*
X0518330Y0062323D02*
X0508336Y0062323D01*
X0508750Y0063321D02*
X0517917Y0063321D01*
X0517533Y0064320D02*
X0509133Y0064320D01*
X0509133Y0065318D02*
X0517533Y0065318D01*
X0517533Y0066317D02*
X0509133Y0066317D01*
X0508818Y0067315D02*
X0517849Y0067315D01*
X0518262Y0068314D02*
X0508404Y0068314D01*
X0507624Y0069312D02*
X0519043Y0069312D01*
X0518053Y0070311D02*
X0506625Y0070311D01*
X0500042Y0070311D02*
X0499233Y0070311D01*
X0499233Y0071309D02*
X0517533Y0071309D01*
X0517533Y0072308D02*
X0499233Y0072308D01*
X0499233Y0073306D02*
X0517533Y0073306D01*
X0517533Y0074305D02*
X0499233Y0074305D01*
X0499233Y0075303D02*
X0517533Y0075303D01*
X0517533Y0076302D02*
X0499771Y0076302D01*
X0500769Y0077300D02*
X0517533Y0077300D01*
X0517533Y0078299D02*
X0501768Y0078299D01*
X0502766Y0079297D02*
X0517533Y0079297D01*
X0517859Y0080296D02*
X0503765Y0080296D01*
X0504763Y0081294D02*
X0562233Y0081294D01*
X0562233Y0082293D02*
X0505762Y0082293D01*
X0506760Y0083291D02*
X0562233Y0083291D01*
X0562233Y0084290D02*
X0507759Y0084290D01*
X0508757Y0085288D02*
X0562561Y0085288D01*
X0563485Y0086287D02*
X0509756Y0086287D01*
X0510754Y0087285D02*
X0564483Y0087285D01*
X0565482Y0088284D02*
X0511753Y0088284D01*
X0512751Y0089282D02*
X0566480Y0089282D01*
X0520536Y0090281D02*
X0516131Y0090281D01*
X0500536Y0090281D02*
X0496131Y0090281D01*
X0497415Y0091279D02*
X0499251Y0091279D01*
X0498349Y0092278D02*
X0498318Y0092278D01*
X0489251Y0091279D02*
X0487415Y0091279D01*
X0488318Y0092278D02*
X0488349Y0092278D01*
X0490536Y0090281D02*
X0486131Y0090281D01*
X0480536Y0090281D02*
X0476131Y0090281D01*
X0477415Y0091279D02*
X0479251Y0091279D01*
X0478349Y0092278D02*
X0478318Y0092278D01*
X0470536Y0090281D02*
X0466131Y0090281D01*
X0467415Y0091279D02*
X0469251Y0091279D01*
X0468349Y0092278D02*
X0468318Y0092278D01*
X0459251Y0091279D02*
X0418333Y0091279D01*
X0418333Y0090281D02*
X0460536Y0090281D01*
X0458349Y0092278D02*
X0418333Y0092278D01*
X0418333Y0093276D02*
X0457935Y0093276D01*
X0457533Y0094275D02*
X0418333Y0094275D01*
X0418333Y0095273D02*
X0457533Y0095273D01*
X0457533Y0096272D02*
X0418333Y0096272D01*
X0418333Y0097270D02*
X0457830Y0097270D01*
X0465034Y0075303D02*
X0427949Y0075303D01*
X0428531Y0074305D02*
X0464036Y0074305D01*
X0463259Y0073306D02*
X0428533Y0073306D01*
X0428533Y0072308D02*
X0462846Y0072308D01*
X0472631Y0074305D02*
X0474884Y0074305D01*
X0474017Y0073306D02*
X0473407Y0073306D01*
X0471633Y0075303D02*
X0476596Y0075303D01*
X0493407Y0073306D02*
X0494233Y0073306D01*
X0494233Y0072308D02*
X0493821Y0072308D01*
X0498989Y0069312D02*
X0499043Y0069312D01*
X0498262Y0068314D02*
X0498183Y0068314D01*
X0497849Y0067315D02*
X0497184Y0067315D01*
X0496833Y0066317D02*
X0497533Y0066317D01*
X0497533Y0065318D02*
X0496833Y0065318D01*
X0496833Y0064320D02*
X0497533Y0064320D01*
X0497917Y0063321D02*
X0496758Y0063321D01*
X0496191Y0062323D02*
X0498330Y0062323D01*
X0499207Y0061324D02*
X0495193Y0061324D01*
X0494194Y0060326D02*
X0500428Y0060326D01*
X0499906Y0059327D02*
X0492979Y0059327D01*
X0487397Y0058329D02*
X0499033Y0058329D01*
X0498493Y0057330D02*
X0486399Y0057330D01*
X0485400Y0056332D02*
X0498216Y0056332D01*
X0482323Y0060326D02*
X0481598Y0060326D01*
X0483322Y0061324D02*
X0452460Y0061324D01*
X0453336Y0062323D02*
X0484320Y0062323D01*
X0485319Y0063321D02*
X0453750Y0063321D01*
X0454133Y0064320D02*
X0491117Y0064320D01*
X0491221Y0065318D02*
X0491833Y0065318D01*
X0475069Y0060326D02*
X0451239Y0060326D01*
X0451760Y0059327D02*
X0474058Y0059327D01*
X0473269Y0058329D02*
X0452633Y0058329D01*
X0453174Y0057330D02*
X0472855Y0057330D01*
X0472533Y0056332D02*
X0453451Y0056332D01*
X0448833Y0055333D02*
X0472533Y0055333D01*
X0472533Y0054334D02*
X0453429Y0054334D01*
X0453118Y0053336D02*
X0472910Y0053336D01*
X0473324Y0052337D02*
X0452536Y0052337D01*
X0451591Y0051339D02*
X0474192Y0051339D01*
X0475392Y0050340D02*
X0451562Y0050340D01*
X0546562Y0050340D02*
X0560105Y0050340D01*
X0560076Y0051339D02*
X0546591Y0051339D01*
X0547536Y0052337D02*
X0559131Y0052337D01*
X0558549Y0053336D02*
X0548118Y0053336D01*
X0548429Y0054334D02*
X0558237Y0054334D01*
X0558216Y0056332D02*
X0548451Y0056332D01*
X0548174Y0057330D02*
X0558493Y0057330D01*
X0559033Y0058329D02*
X0547633Y0058329D01*
X0546760Y0059327D02*
X0559906Y0059327D01*
X0560428Y0060326D02*
X0546239Y0060326D01*
X0547460Y0061324D02*
X0559207Y0061324D01*
X0558330Y0062323D02*
X0548336Y0062323D01*
X0548750Y0063321D02*
X0557917Y0063321D01*
X0557533Y0064320D02*
X0549133Y0064320D01*
X0549133Y0065318D02*
X0557533Y0065318D01*
X0557533Y0066317D02*
X0549133Y0066317D01*
X0548818Y0067315D02*
X0557849Y0067315D01*
X0558262Y0068314D02*
X0548404Y0068314D01*
X0547624Y0069312D02*
X0559043Y0069312D01*
X0558053Y0070311D02*
X0548614Y0070311D01*
X0549133Y0071309D02*
X0557533Y0071309D01*
X0557533Y0072308D02*
X0549133Y0072308D01*
X0549133Y0073306D02*
X0557533Y0073306D01*
X0567624Y0069312D02*
X0579750Y0069312D01*
X0578752Y0068314D02*
X0568404Y0068314D01*
X0568818Y0067315D02*
X0578033Y0067315D01*
X0578033Y0066317D02*
X0569133Y0066317D01*
X0569133Y0065318D02*
X0578033Y0065318D01*
X0578033Y0064320D02*
X0569133Y0064320D01*
X0568750Y0063321D02*
X0578033Y0063321D01*
X0578915Y0062323D02*
X0568336Y0062323D01*
X0567460Y0061324D02*
X0579914Y0061324D01*
X0580764Y0060326D02*
X0566239Y0060326D01*
X0566760Y0059327D02*
X0579765Y0059327D01*
X0578767Y0058329D02*
X0567633Y0058329D01*
X0568174Y0057330D02*
X0578033Y0057330D01*
X0578033Y0056332D02*
X0568451Y0056332D01*
X0559073Y0049342D02*
X0547594Y0049342D01*
X0548392Y0048343D02*
X0558275Y0048343D01*
X0556543Y0047345D02*
X0548806Y0047345D01*
X0549922Y0046346D02*
X0555544Y0046346D01*
X0554546Y0045348D02*
X0550921Y0045348D01*
X0576023Y0041354D02*
X0579884Y0041354D01*
X0578886Y0042352D02*
X0577021Y0042352D01*
X0578020Y0043351D02*
X0578033Y0043351D01*
X0586782Y0041354D02*
X0589884Y0041354D01*
X0588886Y0042352D02*
X0587781Y0042352D01*
X0596783Y0041354D02*
X0598333Y0041354D01*
X0598333Y0042352D02*
X0597781Y0042352D01*
X0598333Y0040355D02*
X0595784Y0040355D01*
X0598333Y0039357D02*
X0574026Y0039357D01*
X0575024Y0040355D02*
X0580883Y0040355D01*
X0585784Y0040355D02*
X0590883Y0040355D01*
X0598333Y0038358D02*
X0573027Y0038358D01*
X0572029Y0037360D02*
X0598333Y0037360D01*
X0598333Y0036361D02*
X0571030Y0036361D01*
X0570032Y0035363D02*
X0598333Y0035363D01*
X0598333Y0034364D02*
X0568586Y0034364D01*
X0555897Y0033366D02*
X0598333Y0033366D01*
X0598333Y0032367D02*
X0418333Y0032367D01*
X0418333Y0031369D02*
X0598333Y0031369D01*
X0598333Y0030370D02*
X0418333Y0030370D01*
X0418333Y0029372D02*
X0598333Y0029372D01*
X0598333Y0028373D02*
X0418333Y0028373D01*
X0418333Y0027375D02*
X0598333Y0027375D01*
X0598333Y0026376D02*
X0418333Y0026376D01*
X0418333Y0025378D02*
X0598333Y0025378D01*
X0598333Y0024379D02*
X0418333Y0024379D01*
X0418333Y0023381D02*
X0598333Y0023381D01*
X0598333Y0022382D02*
X0418333Y0022382D01*
X0418333Y0021384D02*
X0598333Y0021384D01*
X0598333Y0020385D02*
X0576454Y0020385D01*
X0577549Y0019387D02*
X0598333Y0019387D01*
X0598333Y0018388D02*
X0578373Y0018388D01*
X0578787Y0017390D02*
X0598333Y0017390D01*
X0598333Y0016391D02*
X0579133Y0016391D01*
X0579133Y0015393D02*
X0598333Y0015393D01*
X0598333Y0014394D02*
X0579133Y0014394D01*
X0578781Y0013396D02*
X0598333Y0013396D01*
X0569117Y0019387D02*
X0567549Y0019387D01*
X0566454Y0020385D02*
X0570212Y0020385D01*
X0560212Y0020385D02*
X0556454Y0020385D01*
X0557549Y0019387D02*
X0559117Y0019387D01*
X0550212Y0020385D02*
X0546454Y0020385D01*
X0547549Y0019387D02*
X0549117Y0019387D01*
X0540212Y0020385D02*
X0536454Y0020385D01*
X0537549Y0019387D02*
X0539117Y0019387D01*
X0530212Y0020385D02*
X0526454Y0020385D01*
X0527549Y0019387D02*
X0529117Y0019387D01*
X0520212Y0020385D02*
X0516454Y0020385D01*
X0517549Y0019387D02*
X0519117Y0019387D01*
X0510212Y0020385D02*
X0506454Y0020385D01*
X0507549Y0019387D02*
X0509117Y0019387D01*
X0500212Y0020385D02*
X0496454Y0020385D01*
X0497549Y0019387D02*
X0499117Y0019387D01*
X0490212Y0020385D02*
X0486454Y0020385D01*
X0487549Y0019387D02*
X0489117Y0019387D01*
X0480212Y0020385D02*
X0476454Y0020385D01*
X0477549Y0019387D02*
X0479117Y0019387D01*
X0470212Y0020385D02*
X0466454Y0020385D01*
X0467549Y0019387D02*
X0469117Y0019387D01*
X0460212Y0020385D02*
X0454818Y0020385D01*
X0453833Y0020385D02*
X0452833Y0020385D01*
X0451848Y0020385D02*
X0446454Y0020385D01*
X0447549Y0019387D02*
X0449974Y0019387D01*
X0449077Y0018388D02*
X0448373Y0018388D01*
X0452833Y0018388D02*
X0453833Y0018388D01*
X0453833Y0017390D02*
X0452833Y0017390D01*
X0452833Y0016391D02*
X0453833Y0016391D01*
X0457590Y0018388D02*
X0458293Y0018388D01*
X0459117Y0019387D02*
X0456693Y0019387D01*
X0453833Y0019387D02*
X0452833Y0019387D01*
X0440212Y0020385D02*
X0436454Y0020385D01*
X0437549Y0019387D02*
X0439117Y0019387D01*
X0430212Y0020385D02*
X0426454Y0020385D01*
X0427549Y0019387D02*
X0429117Y0019387D01*
X0420212Y0020385D02*
X0418333Y0020385D01*
X0418333Y0019387D02*
X0419117Y0019387D01*
X0418333Y0033366D02*
X0551169Y0033366D01*
X0445042Y0070311D02*
X0423833Y0070311D01*
X0423833Y0071309D02*
X0422833Y0071309D01*
X0422833Y0072308D02*
X0423833Y0072308D01*
X0423833Y0073306D02*
X0422833Y0073306D01*
X0422833Y0074305D02*
X0423833Y0074305D01*
X0423833Y0075303D02*
X0422833Y0075303D01*
X0418717Y0075303D02*
X0418333Y0075303D01*
X0582833Y0073306D02*
X0583833Y0073306D01*
X0583833Y0072308D02*
X0582833Y0072308D01*
X0582833Y0071309D02*
X0583833Y0071309D01*
D15*
X0564733Y0076800D02*
X0563333Y0075400D01*
X0564733Y0076800D02*
X0564733Y0084000D01*
X0572733Y0092000D01*
X0572733Y0095200D01*
X0573333Y0095400D01*
X0513333Y0095400D02*
X0512733Y0095200D01*
X0512733Y0093600D01*
X0511133Y0092000D01*
X0511133Y0091200D01*
X0496733Y0076800D01*
X0496733Y0070400D01*
X0494333Y0068000D01*
X0494333Y0064000D01*
X0491933Y0061600D01*
X0487133Y0061600D01*
X0481533Y0056000D01*
X0478333Y0056000D01*
X0478333Y0055400D01*
X0543333Y0045400D02*
X0543933Y0044800D01*
X0547933Y0044800D01*
X0550333Y0042400D01*
X0555133Y0042400D01*
X0558333Y0045600D01*
X0563133Y0045600D01*
X0563333Y0045400D01*
X0567933Y0036800D02*
X0581533Y0050400D01*
X0584733Y0050400D01*
X0587933Y0053600D01*
X0587933Y0056800D01*
X0592733Y0061600D01*
X0592733Y0064800D01*
X0593333Y0065400D01*
X0567933Y0036800D02*
X0553533Y0036800D01*
D16*
X0553533Y0036800D03*
M02*
