G75*
%MOIN*%
%OFA0B0*%
%FSLAX25Y25*%
%IPPOS*%
%LPD*%
%AMOC8*
5,1,8,0,0,1.08239X$1,22.5*
%
%ADD10C,0.00600*%
%ADD11C,0.07400*%
%ADD12R,0.07400X0.07400*%
%ADD13R,0.06400X0.06400*%
%ADD14OC8,0.06400*%
%ADD15C,0.00800*%
%ADD16C,0.04000*%
D10*
X0413333Y0010400D02*
X0608333Y0010400D01*
X0608333Y0100400D01*
X0413333Y0100400D01*
X0413333Y0010400D01*
D11*
X0423333Y0015400D03*
X0433333Y0015400D03*
X0443333Y0015400D03*
X0453333Y0015400D03*
X0463333Y0015400D03*
X0473333Y0015400D03*
X0483333Y0015400D03*
X0493333Y0015400D03*
X0503333Y0015400D03*
X0513333Y0015400D03*
X0523333Y0015400D03*
X0533333Y0015400D03*
X0543333Y0015400D03*
X0553333Y0015400D03*
X0563333Y0015400D03*
X0573333Y0015400D03*
X0423333Y0040400D03*
X0448333Y0045400D03*
X0423333Y0050400D03*
X0448333Y0055400D03*
X0423333Y0060400D03*
X0448333Y0065400D03*
X0468333Y0070400D03*
X0478333Y0070400D03*
X0488333Y0070400D03*
X0503333Y0065400D03*
X0523333Y0065400D03*
X0543333Y0065400D03*
X0563333Y0065400D03*
X0563333Y0055400D03*
X0543333Y0055400D03*
X0523333Y0055400D03*
X0503333Y0055400D03*
X0478333Y0055400D03*
X0503333Y0045400D03*
X0523333Y0045400D03*
X0543333Y0045400D03*
X0563333Y0045400D03*
X0563333Y0095400D03*
X0553333Y0095400D03*
X0543333Y0095400D03*
X0533333Y0095400D03*
X0523333Y0095400D03*
X0513333Y0095400D03*
X0503333Y0095400D03*
X0493333Y0095400D03*
X0483333Y0095400D03*
X0473333Y0095400D03*
X0463333Y0095400D03*
X0573333Y0095400D03*
D12*
X0563333Y0075400D03*
X0543333Y0075400D03*
X0523333Y0075400D03*
X0423333Y0070400D03*
D13*
X0583333Y0075400D03*
D14*
X0593333Y0075400D03*
X0593333Y0065400D03*
X0583333Y0065400D03*
X0583333Y0055400D03*
X0593333Y0055400D03*
X0593333Y0045400D03*
X0583333Y0045400D03*
D15*
X0583133Y0044800D01*
X0575133Y0044800D01*
X0546333Y0016000D01*
X0543933Y0016000D01*
X0543333Y0015400D01*
X0538333Y0020800D02*
X0533533Y0016000D01*
X0533333Y0015400D01*
X0530333Y0022400D02*
X0523333Y0015400D01*
X0538333Y0020800D02*
X0548733Y0020800D01*
X0578333Y0050400D01*
X0584733Y0050400D01*
X0589533Y0055200D01*
X0592733Y0055200D01*
X0593333Y0055400D01*
X0583333Y0055400D02*
X0583133Y0055200D01*
X0580733Y0055200D01*
X0547933Y0022400D01*
X0530333Y0022400D01*
X0545533Y0024000D02*
X0481533Y0024000D01*
X0473533Y0016000D01*
X0473333Y0015400D01*
X0463333Y0015400D02*
X0484733Y0036800D01*
X0553533Y0036800D01*
X0556733Y0035200D02*
X0545533Y0024000D01*
X0556733Y0035200D02*
X0556733Y0046400D01*
X0560733Y0050400D01*
X0565533Y0050400D01*
X0579933Y0064800D01*
X0583133Y0064800D01*
X0583333Y0065400D01*
X0587933Y0066400D02*
X0587933Y0063200D01*
X0584733Y0060000D01*
X0578333Y0060000D01*
X0563933Y0045600D01*
X0563333Y0045400D01*
X0543333Y0045400D02*
X0543133Y0045600D01*
X0523933Y0045600D01*
X0523333Y0045400D01*
X0523133Y0045600D01*
X0503933Y0045600D01*
X0503333Y0045400D01*
X0503133Y0045600D01*
X0448733Y0045600D01*
X0448333Y0045400D01*
X0447933Y0044800D01*
X0443933Y0040800D01*
X0433533Y0040800D01*
X0433533Y0016000D01*
X0433333Y0015400D01*
X0423333Y0040400D02*
X0423933Y0040800D01*
X0433533Y0040800D01*
X0423333Y0050400D02*
X0423133Y0050400D01*
X0423133Y0053600D01*
X0418333Y0058400D01*
X0418333Y0075200D01*
X0419133Y0076000D01*
X0455133Y0076000D01*
X0466333Y0064800D01*
X0490333Y0064800D01*
X0493533Y0068000D01*
X0493533Y0095200D01*
X0493333Y0095400D01*
X0503133Y0095200D02*
X0503333Y0095400D01*
X0503133Y0095200D02*
X0503133Y0075200D01*
X0491133Y0063200D01*
X0465533Y0063200D01*
X0458333Y0070400D01*
X0446333Y0070400D01*
X0436733Y0060800D01*
X0423933Y0060800D01*
X0423333Y0060400D01*
X0448333Y0065400D02*
X0448733Y0064800D01*
X0461533Y0064800D01*
X0464733Y0061600D01*
X0491933Y0061600D01*
X0520733Y0090400D01*
X0538333Y0090400D01*
X0543333Y0095400D01*
X0546333Y0088800D02*
X0552733Y0095200D01*
X0553333Y0095400D01*
X0563333Y0095400D02*
X0563933Y0095200D01*
X0563933Y0084000D01*
X0568733Y0079200D01*
X0568733Y0070400D01*
X0563933Y0065600D01*
X0563333Y0065400D01*
X0563133Y0065600D01*
X0543933Y0065600D01*
X0543333Y0065400D01*
X0543133Y0065600D01*
X0523933Y0065600D01*
X0523333Y0065400D01*
X0503933Y0065600D02*
X0503333Y0065400D01*
X0503933Y0065600D02*
X0527133Y0088800D01*
X0546333Y0088800D01*
X0487933Y0070400D02*
X0473533Y0084800D01*
X0473533Y0095200D01*
X0473333Y0095400D01*
X0523333Y0075400D02*
X0523933Y0076000D01*
X0543133Y0076000D01*
X0543333Y0075400D01*
X0543933Y0076000D01*
X0563133Y0076000D01*
X0563333Y0075400D01*
X0587933Y0066400D02*
X0592733Y0071200D01*
X0592733Y0075200D01*
X0593333Y0075400D01*
X0488333Y0070400D02*
X0487933Y0070400D01*
D16*
X0553533Y0036800D03*
M02*
